<svg width="1600" height="457" viewBox="0 0 1600 457" fill="none" xmlns="http://www.w3.org/2000/svg">
<path d="M615.729 73.6343L558.437 123.382C558.163 123.6 557.797 123.569 557.554 123.319L551.276 115.781C551.063 115.501 551.093 115.127 551.337 114.878L608.629 65.1302C608.903 64.9121 609.268 64.9433 609.512 65.1925L615.79 72.7309C616.034 73.0113 616.003 73.4162 615.729 73.6343Z" fill="black"/>
<path d="M644.01 107.681L586.719 157.429C586.444 157.647 586.079 157.615 585.835 157.366L579.557 149.828C579.344 149.547 579.374 149.174 579.618 148.924L636.91 99.1771C637.184 98.959 637.55 98.9902 637.793 99.2394L644.071 106.778C644.315 107.027 644.284 107.432 644.01 107.681Z" fill="black"/>
<path d="M629.867 90.6343L555.906 154.835C555.632 155.054 555.266 155.022 555.022 154.773L548.745 147.235C548.531 146.954 548.562 146.581 548.806 146.331L622.767 82.1302C623.041 81.9121 623.406 81.9433 623.65 82.1925L629.928 89.7309C630.172 90.0113 630.141 90.4162 629.867 90.6343Z" fill="black"/>
<path d="M699.909 10.3678L593.767 46.4712C592.091 47.0631 590.963 48.7452 591.116 50.5519C591.238 52.3898 592.579 53.885 594.316 54.1965L649.139 64.0401L655.264 120.609C655.447 122.416 656.849 123.88 658.616 124.129C659.805 124.316 660.993 123.88 661.816 123.101C662.212 122.728 662.547 122.229 662.761 121.7L704.754 15.6945C705.333 14.2304 705.028 12.6106 703.992 11.458C702.956 10.3055 701.341 9.86936 699.909 10.3678Z" fill="black"/>
<path d="M366.849 10.4716L370.566 152.175H363.435C361.15 146.039 359.413 141.397 358.163 138.22C350.941 117.941 345.029 102.833 340.488 92.8959C332.413 75.1401 320.741 58.8795 305.443 44.083C293.863 32.8689 281.886 24.7386 269.483 19.661C257.08 14.5835 243.123 12.0603 227.612 12.0603C204.238 12.0603 184.003 17.2313 166.846 27.6044C151.762 36.7004 137.682 49.7524 124.67 66.7606C111.657 83.7688 100.992 103.176 92.733 124.919C80.9395 155.571 75.058 190.428 75.058 229.522C75.058 262.697 79.0806 292.602 87.1562 319.235C95.2319 345.869 106.995 368.142 122.506 386.116C151.03 419.509 188.879 436.206 235.992 436.206C259.549 436.206 280.759 432.031 299.561 423.683C318.364 415.335 332.961 403.56 343.292 388.327C355.268 370.79 363.953 347.115 369.347 317.335L376.478 318.612C372.547 352.006 363.649 378.515 349.813 398.171C336.588 416.986 318.334 431.346 295.082 441.283C271.83 451.22 244.891 456.173 214.295 456.173C185.771 456.173 158.466 451.843 132.441 443.183C90.8741 429.228 58.4191 404.027 35.0758 367.581C11.7326 331.135 0 287.618 0 237.123C0 198.434 6.82622 162.766 20.4787 130.121C34.1311 97.475 53.147 71.2151 77.5264 51.3411C96.329 36.1397 118.819 24.0221 144.966 15.0508C171.113 6.07942 197.321 1.59375 223.589 1.59375C248.609 1.59375 275.06 6.45323 302.975 16.1722L328.39 24.7386C333.357 26.6388 337.685 27.6044 341.403 27.6044C346.583 27.6044 350.819 25.3927 354.11 20.9382C355.543 18.82 357.31 15.3311 359.382 10.4716H366.849Z" fill="#FC9828"/>
<path d="M407.17 11.4011L496.49 0V353.496L496.795 377.575C496.795 391.936 497.618 402.465 499.263 409.068C500.909 415.735 504.109 421.279 508.863 425.703C514.653 431.403 525.288 435.733 540.8 438.693V445.359H403.727V438.693C416.13 437.01 425.028 434.612 430.391 431.559C435.755 428.506 440.113 423.304 443.404 415.922C445.69 411.062 447.274 403.711 448.219 393.898C449.164 384.117 449.621 369.912 449.621 351.378V102.921C449.621 81.3651 449.103 66.1948 448.067 57.3169C447.03 48.439 444.745 41.2433 441.24 35.8231C437.736 29.9045 433.5 25.668 428.533 23.1448C423.565 20.6216 416.434 19.033 407.14 18.3788V11.4011H407.17Z" fill="#FC9828"/>
<path d="M560.967 182.573L650.287 171.172V353.745L650.592 377.731C650.592 392.06 651.415 402.496 653.06 409.162C654.706 415.828 657.906 421.31 662.66 425.765C668.45 431.403 679.085 435.764 694.596 438.724V445.39H557.523V438.724C569.926 437.041 578.825 434.705 584.188 431.652C589.552 428.6 593.91 423.366 597.201 416.015C599.486 411.218 601.071 403.866 602.016 394.085C602.961 384.304 603.418 370.192 603.418 351.658V273.782C603.418 252.132 602.9 236.899 601.863 228.177C600.827 219.455 598.542 212.384 595.037 206.902C591.533 201.045 587.297 196.746 582.329 194.161C577.362 191.513 570.231 189.893 560.937 189.239V182.573H560.967Z" fill="#FC9828"/>
<path d="M732.781 445.359V355.645H737.749C743.539 377.637 750.761 395.175 759.416 408.258C775.293 432.151 793.852 444.081 815.092 444.081C828.074 444.081 839.319 440.063 848.827 432.026C859.127 423.148 864.277 410.564 864.277 394.303C864.277 381.002 860.56 369.351 853.154 359.446C849.01 354.15 843.829 349.29 837.521 344.867C831.243 340.444 820.669 334.182 805.828 326.177C779.864 312.003 762.524 300.197 753.869 290.665C741.497 277.146 735.311 261.508 735.311 243.753C735.311 224.72 741.527 208.366 753.93 194.628C768.192 178.991 787.117 171.172 810.673 171.172C821.217 171.172 831.03 173.072 840.142 176.872L850.686 181.638C854.008 182.916 856.903 183.539 859.371 183.539C863.302 183.539 867.02 180.361 870.525 174.038H876.741L880.154 245.995H873.633C871.347 235.84 868.94 227.71 866.38 221.573C863.79 215.437 860.133 209.518 855.409 203.818C849.04 195.781 841.605 189.488 833.133 184.972C824.722 180.424 816.342 178.15 808.083 178.15C796.533 178.15 786.721 182.417 778.553 190.984C770.447 199.55 766.364 210.048 766.364 222.539C766.364 232.881 770.021 242.257 777.335 250.606C784.648 258.954 795.954 266.617 811.222 273.595L844.012 288.796C863.607 297.892 878.265 309.2 887.956 322.719C897.647 336.238 902.492 352.187 902.492 370.597C902.492 392.777 895.453 411.187 881.404 425.765C865.283 442.68 844.591 451.122 819.389 451.122C805.736 451.122 791.901 448.38 777.822 442.867C768.741 439.284 763.255 437.228 761.397 436.699C759.538 436.169 757.161 435.92 754.266 435.92C747.043 435.92 741.558 439.097 737.84 445.421H732.781V445.359Z" fill="black"/>
<path d="M1028.62 0V217.088C1035.85 207.992 1042.28 200.983 1047.85 195.906C1053.43 190.828 1060.16 186.405 1068 182.604C1083.08 175.004 1100.24 171.203 1119.47 171.203C1143.88 171.203 1164.02 176.156 1179.93 186.093C1191.29 193.476 1199.1 202.478 1203.33 213.132C1207.57 223.785 1209.7 239.765 1209.7 261.104V353.558L1210.01 377.606C1210.01 391.967 1210.83 402.496 1212.47 409.162C1214.12 415.828 1217.32 421.311 1222.07 425.765C1227.86 431.466 1238.5 435.796 1254.01 438.755V445.421H1117.06V438.755C1128 437.291 1135.77 435.484 1140.43 433.366C1145.1 431.248 1149.24 427.665 1152.96 422.588C1156.68 417.354 1159.24 410.159 1160.7 401.094C1162.13 391.998 1162.86 378.603 1162.86 360.879V260.449C1162.86 245.279 1161.73 233.255 1159.45 224.377C1157.16 215.499 1153.38 207.774 1147.99 201.295C1137.48 188.834 1122.64 182.604 1103.44 182.604C1053.55 182.604 1028.56 222.913 1028.56 303.531V354.181L1028.87 377.575C1028.87 391.936 1029.69 402.464 1031.34 409.131C1032.98 415.797 1036.18 421.279 1040.93 425.734C1046.69 431.434 1057.33 435.764 1072.81 438.724V445.39H935.859V438.724C948.262 437.042 957.161 434.643 962.524 431.59C967.888 428.537 972.246 423.335 975.537 415.953C977.822 411.093 979.407 403.742 980.352 393.929C981.296 384.148 981.754 369.943 981.754 351.409V102.921C981.754 81.3651 981.235 66.1948 980.199 57.3169C979.163 48.439 976.878 41.2433 973.373 35.8231C969.869 29.9045 965.633 25.668 960.665 23.1448C955.698 20.6216 948.567 19.033 939.272 18.3788V11.4011L1028.62 0Z" fill="black"/>
<path d="M1534.07 414.613L1539.34 417.79C1531.9 439.97 1514.84 451.059 1488.17 451.059C1473.45 451.059 1461.23 447.352 1451.54 439.97C1445.14 435.11 1438.5 426.668 1431.67 414.613C1417.81 427.291 1407.33 435.64 1400.32 439.658C1386.85 447.259 1371.21 451.059 1353.42 451.059C1330.65 451.059 1312.58 445.452 1299.23 434.269C1285.89 423.086 1279.21 407.947 1279.21 388.945C1279.21 371.407 1284.7 356.704 1295.64 344.898C1301.85 338.357 1308.98 333.123 1317.03 329.198C1325.11 325.273 1336.78 321.317 1352.08 317.299C1370.06 312.657 1383.34 308.733 1391.94 305.555C1400.53 302.378 1407.69 298.577 1413.48 294.154C1420.09 289.295 1424.63 283.594 1427.13 277.052C1429.6 270.511 1430.85 261.415 1430.85 249.796C1430.85 225.062 1426.31 206.995 1417.2 195.594C1413.05 190.298 1407.75 186.093 1401.23 182.916C1394.71 179.738 1387.94 178.15 1380.9 178.15C1372.43 178.15 1364.87 180.361 1358.26 184.816C1351.65 189.239 1346.68 195.376 1343.39 203.195L1335.65 221.573C1331.51 231.51 1324.07 236.463 1313.31 236.463C1306.27 236.463 1300.39 234.096 1295.64 229.33C1290.88 224.564 1288.51 218.614 1288.51 211.418C1288.51 200.64 1295.94 191.544 1310.87 184.162C1318.95 180.361 1328.91 177.246 1340.83 174.816C1352.75 172.387 1364.39 171.172 1375.75 171.172C1388.58 171.172 1401.96 172.854 1415.83 176.249C1429.69 179.645 1441.3 183.975 1450.6 189.239C1464.07 197.058 1472.45 207.213 1475.77 219.673C1477.42 226.028 1478.24 236.681 1478.24 251.696V368.978C1478.24 388.852 1479.06 402.371 1480.71 409.567C1484.21 424.581 1492.68 432.057 1506.12 432.057C1512.52 432.057 1517.55 430.905 1521.18 428.569C1524.8 426.232 1529.1 421.591 1534.07 414.613ZM1431.43 289.731C1420.31 299.232 1408.06 307.58 1394.62 314.776C1379.56 323.031 1369.2 329.261 1363.41 333.466C1357.65 337.702 1352.41 342.749 1347.66 348.667C1337.97 360.91 1333.12 375.177 1333.12 391.468C1333.12 405.424 1336.9 416.918 1344.4 426.014C1351.95 435.11 1361.46 439.658 1373.01 439.658C1383.13 439.658 1392.64 436.45 1401.63 430.001C1410.56 423.553 1417.35 414.956 1421.86 404.178C1428.23 390.004 1431.46 369.507 1431.46 342.687V289.731H1431.43Z" fill="black"/>
<path d="M1593.62 361.377C1585.48 353.589 1572.68 353.994 1565.07 362.311C1560.53 367.264 1558.82 373.931 1559.95 380.161L1526.42 392.465C1525.48 390.814 1524.26 389.257 1522.83 387.855C1520.88 385.986 1518.65 384.584 1516.31 383.65L1524.47 344.898C1530.17 345.179 1535.99 342.998 1540.2 338.419C1547.82 330.102 1547.42 317.019 1539.28 309.231C1531.15 301.443 1518.35 301.848 1510.73 310.165C1503.11 318.483 1503.51 331.566 1511.64 339.353C1513.53 341.16 1515.64 342.531 1517.89 343.434L1509.69 382.279C1504.09 382.092 1498.42 384.273 1494.27 388.789C1486.66 397.107 1487.05 410.19 1495.19 417.977C1503.33 425.765 1516.12 425.36 1523.74 417.043C1528.37 411.997 1530.05 405.206 1528.83 398.882L1562.26 386.609C1563.24 388.384 1564.49 390.004 1566.01 391.468C1574.15 399.256 1586.95 398.851 1594.56 390.534C1602.15 382.248 1601.76 369.165 1593.62 361.377ZM1516.25 334.338C1510.82 329.136 1510.55 320.414 1515.64 314.869C1520.73 309.324 1529.26 309.044 1534.68 314.246C1540.11 319.448 1540.38 328.17 1535.29 333.715C1530.2 339.26 1521.67 339.54 1516.25 334.338ZM1518.84 412.339C1513.75 417.884 1505.21 418.164 1499.79 412.962C1494.37 407.76 1494.09 399.038 1499.18 393.493C1504.27 387.948 1512.8 387.668 1518.23 392.87C1523.65 398.072 1523.9 406.794 1518.84 412.339ZM1589.63 385.861C1584.54 391.406 1576.01 391.686 1570.58 386.484C1565.16 381.282 1564.88 372.56 1569.97 367.015C1575.06 361.47 1583.59 361.19 1589.02 366.392C1594.44 371.594 1594.72 380.316 1589.63 385.861Z" fill="black"/>
</svg>
